<svg width="80" height="80" viewBox="0 0 80 80" fill="none" xmlns="http://www.w3.org/2000/svg">
<path opacity="0.3" d="M80 40C80 62.0914 62.0914 80 40 80C17.9086 80 0 62.0914 0 40C0 17.9086 17.9086 0 40 0C62.0914 0 80 17.9086 80 40ZM10.9071 40C10.9071 56.0675 23.9325 69.0929 40 69.0929C56.0675 69.0929 69.0929 56.0675 69.0929 40C69.0929 23.9325 56.0675 10.9071 40 10.9071C23.9325 10.9071 10.9071 23.9325 10.9071 40Z" fill="#2F2E30"/>
<circle cx="40" cy="40" r="29" fill="black"/>
<path d="M54.1417 25H47.4884L48.3217 33.3333C48.3217 33.3333 49.9884 35 52.4884 35C53.8008 35.0017 55.0685 34.524 56.0534 33.6567C56.1575 33.5594 56.2351 33.4372 56.2788 33.3016C56.3226 33.166 56.331 33.0214 56.3034 32.8817L55.1267 25.8333C55.0874 25.6005 54.9669 25.3891 54.7866 25.2366C54.6063 25.084 54.3779 25.0002 54.1417 25V25Z" stroke="white" stroke-width="2"/>
<path d="M47.4884 25L48.3217 33.3333C48.3217 33.3333 46.6551 35 44.1551 35C41.6551 35 39.9884 33.3333 39.9884 33.3333V25H47.4884Z" stroke="#FAFAFA" stroke-width="2"/>
<path d="M39.9884 25V33.3333C39.9884 33.3333 38.3217 35 35.8217 35C33.3217 35 31.655 33.3333 31.655 33.3333L32.4884 25H39.9884Z" stroke="#FAFAFA" stroke-width="2"/>
<path d="M32.4884 25H25.8367C25.6001 24.9999 25.371 25.0838 25.1904 25.2367C25.0097 25.3896 24.8891 25.6016 24.8501 25.835L23.6751 32.8833C23.6476 33.0231 23.6561 33.1676 23.6999 33.3032C23.7436 33.4387 23.8211 33.5609 23.9251 33.6583C24.4717 34.1417 25.6934 35.0017 27.4884 35.0017C29.9884 35.0017 31.6551 33.335 31.6551 33.335L32.4884 25.0017V25Z" stroke="#FAFAFA" stroke-width="2"/>
<path d="M25 35V51.6667C25 52.5507 25.3512 53.3986 25.9763 54.0237C26.6014 54.6488 27.4493 55 28.3333 55H51.6667C52.5507 55 53.3986 54.6488 54.0237 54.0237C54.6488 53.3986 55 52.5507 55 51.6667V35" stroke="#FAFAFA" stroke-width="2"/>
<path d="M44.7217 55V45C44.7217 44.1159 44.3705 43.2681 43.7454 42.6429C43.1202 42.0178 42.2724 41.6666 41.3883 41.6666H38.055C37.171 41.6666 36.3231 42.0178 35.698 42.6429C35.0729 43.2681 34.7217 44.1159 34.7217 45V55" stroke="#FAFAFA" stroke-width="2" stroke-miterlimit="16"/>
</svg>
