<svg width="80" height="80" viewBox="0 0 80 80" fill="none" xmlns="http://www.w3.org/2000/svg">
<path opacity="0.3" d="M80 40C80 62.0914 62.0914 80 40 80C17.9086 80 0 62.0914 0 40C0 17.9086 17.9086 0 40 0C62.0914 0 80 17.9086 80 40ZM10.9071 40C10.9071 56.0675 23.9325 69.0929 40 69.0929C56.0675 69.0929 69.0929 56.0675 69.0929 40C69.0929 23.9325 56.0675 10.9071 40 10.9071C23.9325 10.9071 10.9071 23.9325 10.9071 40Z" fill="#2F2E30"/>
<circle cx="40" cy="40" r="29" fill="black"/>
<path d="M40.4275 49.7731H40.9275C41.5519 49.7731 42.151 49.5251 42.5925 49.0836C43.034 48.6421 43.2819 48.0429 43.282 47.4186C43.282 46.7942 43.034 46.1951 42.5925 45.7535C42.151 45.312 41.5519 45.0641 40.9275 45.0641H40.4275V49.7731ZM39.073 39.5006C38.4486 39.5006 37.8495 39.7485 37.408 40.1901C36.9665 40.6316 36.7185 41.2308 36.7185 41.8551C36.7186 42.4793 36.9667 43.0777 37.408 43.5192C37.8495 43.9607 38.4486 44.2096 39.073 44.2096H39.573V39.5006H39.073ZM39.573 45.0641H39.073C38.2219 45.0641 37.4053 44.7255 36.8035 44.1237C36.2019 43.522 35.8641 42.7059 35.864 41.8551C35.864 41.0041 36.2018 40.1874 36.8035 39.5856C37.4053 38.9838 38.2219 38.6461 39.073 38.6461H39.573V37.7184H40.4275V38.6461H40.9275C41.5912 38.6461 42.239 38.8518 42.781 39.235C43.2549 39.5702 43.628 40.0265 43.8621 40.5543L43.9539 40.7858C43.9724 40.8384 43.9802 40.8941 43.9773 40.9498C43.9743 41.0059 43.9605 41.0613 43.9363 41.1119C43.9121 41.1625 43.8784 41.2083 43.8367 41.2457C43.795 41.2832 43.746 41.312 43.6931 41.3307C43.6402 41.3494 43.5841 41.3571 43.5281 41.3541C43.4722 41.3511 43.4175 41.3372 43.3669 41.3131C43.2648 41.2643 43.186 41.1767 43.1482 41.0699C42.9858 40.6109 42.6845 40.2133 42.2869 39.9323C41.8892 39.6512 41.4144 39.5005 40.9275 39.5006H40.4275V44.2096H40.9275C41.7786 44.2096 42.5952 44.5472 43.197 45.149C43.7988 45.7509 44.1365 46.5675 44.1365 47.4186C44.1364 48.2694 43.7986 49.0854 43.197 49.6871C42.5952 50.2889 41.7786 50.6276 40.9275 50.6276H40.4275V51.5543H39.573V50.6276H39.073C38.4093 50.6275 37.7614 50.4219 37.2195 50.0387C36.6777 49.6556 36.2679 49.1135 36.0466 48.4879L36.0417 48.4742C36.0213 48.421 36.0116 48.3642 36.0134 48.3073C36.0152 48.2502 36.0286 48.194 36.0525 48.1422C36.0764 48.0903 36.1109 48.044 36.1531 48.0055C36.1953 47.967 36.2447 47.9366 36.2986 47.9176C36.3523 47.8987 36.4097 47.8907 36.4666 47.8942C36.5235 47.8976 36.5795 47.9128 36.6306 47.9381C36.6816 47.9634 36.7272 47.9985 36.7644 48.0416C36.8017 48.0849 36.8299 48.1357 36.8474 48.1901L36.8494 48.1969L36.8523 48.2037C37.1768 49.1184 38.0481 49.773 39.073 49.7731H39.573V45.0641Z" fill="#FAFAFA" stroke="#FAFAFA"/>
<path d="M40.0361 23.8094C43.9382 23.8094 47.4978 25.0428 49.7168 26.12L49.8447 26.1825C50.284 26.3999 50.6638 26.6085 50.9766 26.7948L47.8457 31.3729L47.6143 31.7108L47.9014 32.0048C49.8396 33.9864 51.6698 36.5169 52.9805 39.1923C54.2934 41.8724 55.0683 44.6627 54.9414 47.1737C54.8155 49.6638 53.8056 51.8866 51.5166 53.5038C49.2054 55.1366 45.538 56.1884 40.0361 56.1884C34.5332 56.1883 30.8546 55.1548 28.5283 53.5438C26.2249 51.9487 25.1988 49.7545 25.0576 47.286C24.9153 44.7955 25.6757 42.0153 26.9834 39.3202C28.2888 36.63 30.1227 34.0594 32.0811 31.9989L32.3594 31.7069L32.1328 31.3739L29.0225 26.7968C29.1797 26.7042 29.3538 26.6075 29.543 26.5067L29.5449 26.5057C29.7354 26.4033 29.9408 26.2978 30.1611 26.1903L30.2197 26.162C32.4563 25.0759 36.0841 23.8095 40.0361 23.8094ZM46.957 32.6981C42.6083 34.3798 37.3703 34.38 33.0215 32.7001L32.8418 33.1659L32.4756 32.826C30.6577 34.7855 28.9657 37.1901 27.751 39.6932C26.5598 42.149 25.8686 44.6147 25.8955 46.8036L25.9102 47.2372C26.0376 49.4718 26.9493 51.4116 29.0127 52.8417C31.1392 54.3136 34.6197 55.3338 40.0352 55.3339C45.4465 55.3339 48.9126 54.2956 51.0215 52.8055C53.0713 51.3568 53.9725 49.3909 54.0869 47.1298C54.2038 44.8131 53.4877 42.1697 52.2119 39.5673L52.2109 39.5653L51.9766 39.1044C50.7861 36.8113 49.2793 34.6958 47.5 32.8202L47.2695 32.577L46.957 32.6981ZM48.7627 27.0809C46.4933 27.2444 43.8596 27.7298 41.2637 28.4198L40.1553 28.7274C38.2952 29.2648 36.2165 29.227 34.2295 28.9003L33.834 28.8309C33.3047 28.7328 32.7788 28.6166 32.2578 28.4813L30.9727 28.1473L31.7188 29.246L33.499 31.8671L33.5908 32.0028L33.7451 32.0575C37.6692 33.4545 42.2998 33.4545 46.2246 32.0594L46.0566 31.5878L46.4697 31.87L49.2119 27.8622L49.7969 27.0067L48.7627 27.0809ZM40.0352 24.6639C36.7535 24.664 33.7063 25.5779 31.5801 26.4803L31.7754 26.9403L31.6328 27.4198C32.3895 27.6449 33.1819 27.841 33.9873 27.9901H33.9883C36.0232 28.3649 38.1082 28.4301 39.917 27.9061L39.918 27.9052C41.8862 27.3318 43.8882 26.8815 45.9121 26.5555L45.9766 25.5829C44.2351 25.0586 42.1902 24.6639 40.0352 24.6639Z" fill="#FAFAFA" stroke="#FAFAFA"/>
</svg>
